<?xml version="1.0" standalone="no"?>
<!DOCTYPE svg PUBLIC "-//W3C//DTD SVG 20010904//EN"
 "http://www.w3.org/TR/2001/REC-SVG-20010904/DTD/svg10.dtd">
<svg version="1.0" xmlns="http://www.w3.org/2000/svg"
 width="512.000000pt" height="512.000000pt" viewBox="0 0 512.000000 512.000000"
 preserveAspectRatio="xMidYMid meet">
<metadata>
Created by potrace 1.11, written by Peter Selinger 2001-2013
</metadata>
<g transform="translate(0.000000,512.000000) scale(0.100000,-0.100000)"
fill="#000000" stroke="none">
<path d="M2400 4734 c-312 -38 -531 -100 -775 -219 -230 -111 -423 -253 -615
-451 -325 -335 -523 -739 -596 -1215 -21 -137 -24 -460 -5 -589 71 -490 272
-905 604 -1247 66 -67 155 -151 199 -185 316 -250 671 -405 1064 -465 154 -23
481 -23 634 1 724 112 1335 559 1655 1210 358 730 280 1613 -201 2262 l-56 77
172 172 173 173 -31 39 c-30 37 -244 250 -290 288 l-23 19 -173 -173 -174
-173 -73 55 c-267 200 -589 336 -944 398 -116 20 -452 34 -545 23z m460 -508
c387 -64 723 -245 984 -528 734 -797 551 -2061 -379 -2623 -490 -296 -1119
-319 -1637 -60 -761 381 -1124 1262 -852 2074 192 575 682 1005 1282 1126 181
37 423 41 602 11z"/>
<path d="M2342 3028 l3 -733 245 0 245 0 3 733 2 732 -250 0 -250 0 2 -732z"/>
</g>
</svg>
